<?xml version="1.0" encoding="UTF-8"?>
<!DOCTYPE svg PUBLIC "-//W3C//DTD SVG 1.1//EN" "http://www.w3.org/Graphics/SVG/1.1/DTD/svg11.dtd">
<svg xmlns="http://www.w3.org/2000/svg" version="1.1" width="64px" height="64px" style="shape-rendering:geometricPrecision; text-rendering:geometricPrecision; image-rendering:optimizeQuality; fill-rule:evenodd; clip-rule:evenodd" xmlns:xlink="http://www.w3.org/1999/xlink">
<g><path style="opacity:0.923" fill="#e94435" d="M 17.5,9.5 C 17.5,13.5 17.5,17.5 17.5,21.5C 13.5,21.5 9.5,21.5 5.5,21.5C 9.16667,17.1667 13.1667,13.1667 17.5,9.5 Z"/></g>
<g><path style="opacity:0.996" fill="#feb900" d="M 17.5,9.5 C 27.1724,9.33353 36.8391,9.5002 46.5,10C 47.4505,13.0567 47.7839,16.2234 47.5,19.5C 47.1667,20.1667 46.8333,20.8333 46.5,21.5C 43.141,24.5285 39.8076,27.5285 36.5,30.5C 36.1667,30.5 35.8333,30.5 35.5,30.5C 35.5,27.5 35.5,24.5 35.5,21.5C 29.5,21.5 23.5,21.5 17.5,21.5C 17.5,17.5 17.5,13.5 17.5,9.5 Z"/></g>
<g><path style="opacity:0.979" fill="#00ab46" d="M 17.5,53.5 C 17.5,49.5 17.5,45.5 17.5,41.5C 23.5,41.5 29.5,41.5 35.5,41.5C 35.5,37.8333 35.5,34.1667 35.5,30.5C 35.8333,30.5 36.1667,30.5 36.5,30.5C 39.3958,34.9046 42.8958,38.9046 47,42.5C 47.8213,35.3209 47.6546,28.3209 46.5,21.5C 46.8333,20.8333 47.1667,20.1667 47.5,19.5C 49.6298,17.8729 51.6298,16.0396 53.5,14C 54.7932,13.51 56.1266,13.3433 57.5,13.5C 57.5,25.5 57.5,37.5 57.5,49.5C 53.4975,49.0287 50.3308,47.0287 48,43.5C 47.7883,46.7577 47.2883,49.9243 46.5,53C 36.8391,53.4998 27.1724,53.6665 17.5,53.5 Z"/></g>
<g><path style="opacity:1" fill="#4285f4" d="M 5.5,21.5 C 9.5,21.5 13.5,21.5 17.5,21.5C 17.5,28.1667 17.5,34.8333 17.5,41.5C 13.5,41.5 9.5,41.5 5.5,41.5C 5.5,34.8333 5.5,28.1667 5.5,21.5 Z"/></g>
<g><path style="opacity:1" fill="#1a8138" d="M 46.5,21.5 C 47.6546,28.3209 47.8213,35.3209 47,42.5C 42.8958,38.9046 39.3958,34.9046 36.5,30.5C 39.8076,27.5285 43.141,24.5285 46.5,21.5 Z"/></g>
<g><path style="opacity:0.988" fill="#0066d9" d="M 5.5,41.5 C 9.5,41.5 13.5,41.5 17.5,41.5C 17.5,45.5 17.5,49.5 17.5,53.5C 13.8183,53.6653 10.1516,53.4986 6.5,53C 5.53986,49.27 5.20653,45.4367 5.5,41.5 Z"/></g>
</svg>
