<?xml version="1.0" encoding="UTF-8"?>
<!DOCTYPE svg PUBLIC "-//W3C//DTD SVG 1.1//EN" "http://www.w3.org/Graphics/SVG/1.1/DTD/svg11.dtd">
<svg xmlns="http://www.w3.org/2000/svg" version="1.1" width="64px" height="64px" style="shape-rendering:geometricPrecision; text-rendering:geometricPrecision; image-rendering:optimizeQuality; fill-rule:evenodd; clip-rule:evenodd" xmlns:xlink="http://www.w3.org/1999/xlink">
<g><path style="opacity:0.889" fill="#75bbfd" d="M 19.5,3.5 C 27.9901,2.34305 36.6567,2.17639 45.5,3C 46.4438,5.71914 46.7771,8.55247 46.5,11.5C 46.5,12.8333 46.5,14.1667 46.5,15.5C 46.6621,17.5273 46.4955,19.5273 46,21.5C 42.9243,22.2883 39.7577,22.7883 36.5,23C 35.2921,25.2503 33.9587,27.417 32.5,29.5C 31.0413,27.417 29.7079,25.2503 28.5,23C 25.3054,22.8195 22.3054,22.3195 19.5,21.5C 25.8333,21.5 32.1667,21.5 38.5,21.5C 38.5,19.5 38.5,17.5 38.5,15.5C 42.5,14.8333 42.5,14.1667 38.5,13.5C 38.5,12.8333 38.5,12.1667 38.5,11.5C 39.675,11.719 40.675,11.3857 41.5,10.5C 41.3764,9.89333 41.0431,9.55999 40.5,9.5C 38.9254,7.88629 38.2587,5.88629 38.5,3.5C 32.1667,3.5 25.8333,3.5 19.5,3.5 Z"/></g>
<g><path style="opacity:1" fill="#9ccefd" d="M 19.5,3.5 C 25.8333,3.5 32.1667,3.5 38.5,3.5C 38.2587,5.88629 38.9254,7.88629 40.5,9.5C 34.7945,9.17124 29.1278,9.50457 23.5,10.5C 28.456,11.4941 33.456,11.8275 38.5,11.5C 38.5,12.1667 38.5,12.8333 38.5,13.5C 18.5,14.1667 18.5,14.8333 38.5,15.5C 38.5,17.5 38.5,19.5 38.5,21.5C 32.1667,21.5 25.8333,21.5 19.5,21.5C 18.1667,15.5 18.1667,9.5 19.5,3.5 Z"/></g>
<g><path style="opacity:1" fill="#e5f2fe" d="M 40.5,9.5 C 41.0431,9.55999 41.3764,9.89333 41.5,10.5C 40.675,11.3857 39.675,11.719 38.5,11.5C 33.456,11.8275 28.456,11.4941 23.5,10.5C 29.1278,9.50457 34.7945,9.17124 40.5,9.5 Z"/></g>
<g><path style="opacity:0.764" fill="#d5ccc7" d="M 46.5,11.5 C 48.8333,11.8333 50.1667,13.1667 50.5,15.5C 49.1667,15.5 47.8333,15.5 46.5,15.5C 46.5,14.1667 46.5,12.8333 46.5,11.5 Z"/></g>
<g><path style="opacity:0.711" fill="#dacec9" d="M 12.5,18.5 C 12.5,15.1667 14.1667,13.5 17.5,13.5C 17.0012,16.2639 15.3345,17.9305 12.5,18.5 Z"/></g>
<g><path style="opacity:1" fill="#f8fbfe" d="M 38.5,13.5 C 42.5,14.1667 42.5,14.8333 38.5,15.5C 18.5,14.8333 18.5,14.1667 38.5,13.5 Z"/></g>
<g><path style="opacity:0.698" fill="#d8ccc5" d="M 50.5,15.5 C 54.1702,16.1926 55.1702,18.1926 53.5,21.5C 51.0217,20.2776 50.0217,18.2776 50.5,15.5 Z"/></g>
<g><path style="opacity:0.68" fill="#dacec8" d="M 12.5,18.5 C 12.9783,21.2776 11.9783,23.2776 9.5,24.5C 7.82977,21.1926 8.82977,19.1926 12.5,18.5 Z"/></g>
<g><path style="opacity:0.768" fill="#d9cac6" d="M 54.5,22.5 C 56.7012,22.8584 58.0345,24.1917 58.5,26.5C 58.1667,27.5 57.5,28.1667 56.5,28.5C 54.9137,26.8273 54.2471,24.8273 54.5,22.5 Z"/></g>
<g><path style="opacity:0.652" fill="#dbc8c4" d="M 9.5,29.5 C 8.5,29.5 7.5,29.5 6.5,29.5C 6.5,28.1667 6.5,26.8333 6.5,25.5C 7.5,25.5 8.5,25.5 9.5,25.5C 9.5,26.8333 9.5,28.1667 9.5,29.5 Z"/></g>
<g><path style="opacity:0.942" fill="#6cc180" d="M 10.5,29.5 C 23.4394,27.9269 28.2728,33.2602 25,45.5C 22.0164,48.1001 18.5164,49.1001 14.5,48.5C 14.1667,48.5 13.8333,48.5 13.5,48.5C 15.2056,45.8079 16.8722,43.1412 18.5,40.5C 22.31,39.7542 22.31,38.7542 18.5,37.5C 16.8588,33.8587 14.1921,31.1921 10.5,29.5 Z"/></g>
<g><path style="opacity:0.767" fill="#dcc8c4" d="M 58.5,31.5 C 57.5,31.5 56.5,31.5 55.5,31.5C 56.5,28.8333 57.5,28.8333 58.5,31.5 Z"/></g>
<g><path style="opacity:1" fill="#7fcf95" d="M 6.5,29.5 C 7.5,29.5 8.5,29.5 9.5,29.5C 9.83333,29.5 10.1667,29.5 10.5,29.5C 14.1921,31.1921 16.8588,33.8587 18.5,37.5C 18.5,38.5 18.5,39.5 18.5,40.5C 16.8722,43.1412 15.2056,45.8079 13.5,48.5C 12.5,48.5 11.5,48.5 10.5,48.5C 8.45032,50.2368 6.61699,52.2368 5,54.5C 4.72911,49.9579 2.89578,46.2912 -0.5,43.5C -0.5,40.5 -0.5,37.5 -0.5,34.5C 1.26658,32.1099 3.59991,30.4432 6.5,29.5 Z"/></g>
<g><path style="opacity:0.916" fill="#f7699a" d="M 52.5,31.5 C 53.5,31.5 54.5,31.5 55.5,31.5C 56.5,31.5 57.5,31.5 58.5,31.5C 60.5138,31.3915 62.1805,32.0582 63.5,33.5C 63.5,38.5 63.5,43.5 63.5,48.5C 59.5222,49.8111 56.8555,52.4778 55.5,56.5C 53.359,54.8783 51.6924,52.8783 50.5,50.5C 54.1201,49.5485 55.7868,47.2151 55.5,43.5C 57.099,43.7678 58.4324,43.4345 59.5,42.5C 58.8166,40.8235 57.4832,40.1568 55.5,40.5C 56.8333,39.8333 58.1667,39.1667 59.5,38.5C 58.8166,36.8235 57.4832,36.1568 55.5,36.5C 55.69,34.0411 54.69,32.3745 52.5,31.5 Z"/></g>
<g><path style="opacity:1" fill="#f282ad" d="M 52.5,31.5 C 54.69,32.3745 55.69,34.0411 55.5,36.5C 50.7863,36.1734 46.1196,36.5067 41.5,37.5C 47.4632,38.4959 53.4632,38.8293 59.5,38.5C 58.1667,39.1667 56.8333,39.8333 55.5,40.5C 53.396,40.2011 51.396,40.5344 49.5,41.5C 52.7683,42.487 56.1016,42.8204 59.5,42.5C 58.4324,43.4345 57.099,43.7678 55.5,43.5C 55.7868,47.2151 54.1201,49.5485 50.5,50.5C 46.8183,50.6653 43.1516,50.4986 39.5,50C 38.5838,49.6258 37.7504,49.1258 37,48.5C 36.3333,43.5 36.3333,38.5 37,33.5C 37.5,33 38,32.5 38.5,32C 43.1548,31.5008 47.8215,31.3342 52.5,31.5 Z"/></g>
<g><path style="opacity:1" fill="#fef6f9" d="M 55.5,36.5 C 57.4832,36.1568 58.8166,36.8235 59.5,38.5C 53.4632,38.8293 47.4632,38.4959 41.5,37.5C 46.1196,36.5067 50.7863,36.1734 55.5,36.5 Z"/></g>
<g><path style="opacity:1" fill="#f7fcf8" d="M 5.5,37.5 C 9.30997,38.7542 9.30997,39.7542 5.5,40.5C 5.5,39.5 5.5,38.5 5.5,37.5 Z"/></g>
<g><path style="opacity:1" fill="#f6fbf7" d="M 12.5,37.5 C 14.0481,37.8212 14.7148,38.8212 14.5,40.5C 11.7524,40.5983 11.0857,39.5983 12.5,37.5 Z"/></g>
<g><path style="opacity:1" fill="#f7fbf8" d="M 18.5,37.5 C 22.31,38.7542 22.31,39.7542 18.5,40.5C 18.5,39.5 18.5,38.5 18.5,37.5 Z"/></g>
<g><path style="opacity:1" fill="#feeef4" d="M 55.5,40.5 C 57.4832,40.1568 58.8166,40.8235 59.5,42.5C 56.1016,42.8204 52.7683,42.487 49.5,41.5C 51.396,40.5344 53.396,40.2011 55.5,40.5 Z"/></g>
<g><path style="opacity:0.759" fill="#dacecb" d="M 10.5,48.5 C 11.5,48.5 12.5,48.5 13.5,48.5C 13.8333,48.5 14.1667,48.5 14.5,48.5C 15.2341,49.7079 15.5674,51.0413 15.5,52.5C 13.0194,52.226 11.3527,50.8927 10.5,48.5 Z"/></g>
<g><path style="opacity:0.74" fill="#d7ccc5" d="M 15.5,52.5 C 18.2776,52.0217 20.2776,53.0217 21.5,55.5C 18.1926,57.1702 16.1926,56.1702 15.5,52.5 Z"/></g>
<g><path style="opacity:0.783" fill="#d7cac7" d="M 47.5,51.5 C 50.0984,53.9989 49.4317,55.6656 45.5,56.5C 44.8333,56.1667 44.1667,55.8333 43.5,55.5C 44.5487,53.7844 45.882,52.4511 47.5,51.5 Z"/></g>
<g><path style="opacity:0.719" fill="#d9c9c6" d="M 22.5,55.5 C 24.5,55.8333 26.5,56.1667 28.5,56.5C 28.5,57.5 28.5,58.5 28.5,59.5C 25.0306,60.1128 23.0306,58.7794 22.5,55.5 Z"/></g>
<g><path style="opacity:0.675" fill="#dacec9" d="M 39.5,55.5 C 40.5,55.5 41.5,55.5 42.5,55.5C 41.7427,59.3629 39.7427,60.1962 36.5,58C 37.5707,57.1482 38.5707,56.3149 39.5,55.5 Z"/></g>
<g><path style="opacity:0.762" fill="#d8cbc6" d="M 29.5,57.5 C 31.5,57.5 33.5,57.5 35.5,57.5C 35.5,58.5 35.5,59.5 35.5,60.5C 33.8008,60.6602 32.1341,60.4935 30.5,60C 29.7476,59.3292 29.4142,58.4959 29.5,57.5 Z"/></g>
</svg>
