<?xml version="1.0" encoding="UTF-8"?>
<!DOCTYPE svg PUBLIC "-//W3C//DTD SVG 1.1//EN" "http://www.w3.org/Graphics/SVG/1.1/DTD/svg11.dtd">
<svg xmlns="http://www.w3.org/2000/svg" version="1.1" width="64px" height="64px" style="shape-rendering:geometricPrecision; text-rendering:geometricPrecision; image-rendering:optimizeQuality; fill-rule:evenodd; clip-rule:evenodd" xmlns:xlink="http://www.w3.org/1999/xlink">
<g><path style="opacity:0.989" fill="#6aa55f" d="M 45.5,0.5 C 52.6779,0.664739 58.6779,3.33141 63.5,8.5C 63.5,9.5 63.5,10.5 63.5,11.5C 55.0401,5.87253 45.7067,4.0392 35.5,6C 32.2873,6.60585 29.2873,7.77251 26.5,9.5C 23.6148,11.7686 20.6148,13.7686 17.5,15.5C 25.1689,7.33303 34.5023,2.33303 45.5,0.5 Z"/></g>
<g><path style="opacity:0.998" fill="#6eaa5b" d="M 63.5,11.5 C 63.5,12.8333 63.5,14.1667 63.5,15.5C 49.5709,4.77902 35.5709,4.94569 21.5,16C 10.2013,28.599 8.53465,42.4323 16.5,57.5C 13.6824,57.3426 11.6824,56.0092 10.5,53.5C 7.07926,48.0084 5.74593,42.0084 6.5,35.5C 8.44559,28.9422 11.4456,22.9422 15.5,17.5C 16.1667,16.8333 16.8333,16.1667 17.5,15.5C 20.6148,13.7686 23.6148,11.7686 26.5,9.5C 29.2873,7.77251 32.2873,6.60585 35.5,6C 45.7067,4.0392 55.0401,5.87253 63.5,11.5 Z"/></g>
<g><path style="opacity:0.999" fill="#73af58" d="M 63.5,15.5 C 63.5,15.8333 63.5,16.1667 63.5,16.5C 63.1667,16.5 62.8333,16.5 62.5,16.5C 45.6262,5.9753 30.7929,8.30863 18,23.5C 11.9525,34.9276 12.1191,46.261 18.5,57.5C 17.8333,57.5 17.1667,57.5 16.5,57.5C 8.53465,42.4323 10.2013,28.599 21.5,16C 35.5709,4.94569 49.5709,4.77902 63.5,15.5 Z"/></g>
<g><path style="opacity:0.943" fill="#e0f2dd" d="M 45.5,0.5 C 34.5023,2.33303 25.1689,7.33303 17.5,15.5C 16.8333,16.1667 16.1667,16.8333 15.5,17.5C 13.8058,16.4726 12.4725,15.1392 11.5,13.5C 20.8191,4.18386 32.1525,-0.14947 45.5,0.5 Z"/></g>
<g><path style="opacity:0.993" fill="#7ab756" d="M 62.5,16.5 C 61.8333,17.8333 60.8333,18.8333 59.5,19.5C 48.1979,11.3817 36.8645,11.5483 25.5,20C 16.0065,31.3996 15.0065,43.5663 22.5,56.5C 22.5,56.8333 22.5,57.1667 22.5,57.5C 21.8333,57.5 21.1667,57.5 20.5,57.5C 19.8333,57.5 19.1667,57.5 18.5,57.5C 12.1191,46.261 11.9525,34.9276 18,23.5C 30.7929,8.30863 45.6262,5.9753 62.5,16.5 Z"/></g>
<g><path style="opacity:0.99" fill="#84c054" d="M 59.5,19.5 C 57.5262,23.7931 54.1929,25.4597 49.5,24.5C 47.7567,21.2496 45.4234,18.4162 42.5,16C 40.735,15.3603 39.0683,15.5269 37.5,16.5C 28.6629,18.5021 22.8295,23.8354 20,32.5C 19.3333,37.1667 19.3333,41.8333 20,46.5C 20.7384,49.6485 22.2384,52.3152 24.5,54.5C 24.1667,55.5 23.5,56.1667 22.5,56.5C 15.0065,43.5663 16.0065,31.3996 25.5,20C 36.8645,11.5483 48.1979,11.3817 59.5,19.5 Z"/></g>
<g><path style="opacity:0.908" fill="#8ac653" d="M 37.5,16.5 C 37.5,16.8333 37.5,17.1667 37.5,17.5C 30.8296,21.3377 25.6629,26.671 22,33.5C 21.3333,34.8333 21.3333,36.1667 22,37.5C 24.3333,39.5 26.6667,41.5 29,43.5C 30.6062,48.5148 29.1062,52.1815 24.5,54.5C 22.2384,52.3152 20.7384,49.6485 20,46.5C 19.3333,41.8333 19.3333,37.1667 20,32.5C 22.8295,23.8354 28.6629,18.5021 37.5,16.5 Z"/></g>
<g><path style="opacity:1" fill="#aed885" d="M 49.5,24.5 C 43.51,25.4996 39.51,23.1662 37.5,17.5C 37.5,17.1667 37.5,16.8333 37.5,16.5C 39.0683,15.5269 40.735,15.3603 42.5,16C 45.4234,18.4162 47.7567,21.2496 49.5,24.5 Z"/></g>
<g><path style="opacity:0.968" fill="#d4ebbf" d="M 11.5,13.5 C 12.4725,15.1392 13.8058,16.4726 15.5,17.5C 11.4456,22.9422 8.44559,28.9422 6.5,35.5C 4.5,34.5 2.5,33.5 0.5,32.5C 2.38913,25.0444 6.0558,18.711 11.5,13.5 Z"/></g>
<g><path style="opacity:0.966" fill="#cae6ae" d="M 0.5,32.5 C 2.5,33.5 4.5,34.5 6.5,35.5C 5.74593,42.0084 7.07926,48.0084 10.5,53.5C 8.39263,54.4682 6.0593,54.8016 3.5,54.5C 1.8845,52.262 0.551166,49.9287 -0.5,47.5C -0.5,42.8333 -0.5,38.1667 -0.5,33.5C 0.166667,33.5 0.5,33.1667 0.5,32.5 Z"/></g>
<g><path style="opacity:1" fill="#b3db8e" d="M 10.5,53.5 C 11.6824,56.0092 13.6824,57.3426 16.5,57.5C 17.1667,57.5 17.8333,57.5 18.5,57.5C 19.1667,57.5 19.8333,57.5 20.5,57.5C 18.0521,58.4731 15.3854,58.8064 12.5,58.5C 10.139,58.3259 7.80562,57.9926 5.5,57.5C 4.83333,56.5 4.16667,55.5 3.5,54.5C 6.0593,54.8016 8.39263,54.4682 10.5,53.5 Z"/></g>
<g><path style="opacity:0.599" fill="#fdfefd" d="M 5.5,57.5 C 7.80562,57.9926 10.139,58.3259 12.5,58.5C 18.2953,59.8296 24.462,60.4962 31,60.5C 37.1667,60.3333 43.3333,60.1667 49.5,60C 50.9423,59.6232 51.9423,58.7899 52.5,57.5C 55.5719,57.1826 58.5719,57.5159 61.5,58.5C 60.9747,59.1924 60.3081,59.6924 59.5,60C 42.5567,62.8695 25.5567,63.2028 8.5,61C 5.88067,60.8485 3.54734,60.0152 1.5,58.5C 2.68884,57.5713 4.02218,57.238 5.5,57.5 Z"/></g>
<g><path style="opacity:1" fill="#eaf6e0" d="M 20.5,57.5 C 21.1667,57.5 21.8333,57.5 22.5,57.5C 32.5,57.5 42.5,57.5 52.5,57.5C 51.9423,58.7899 50.9423,59.6232 49.5,60C 43.3333,60.1667 37.1667,60.3333 31,60.5C 24.462,60.4962 18.2953,59.8296 12.5,58.5C 15.3854,58.8064 18.0521,58.4731 20.5,57.5 Z"/></g>
</svg>
