<?xml version="1.0" encoding="UTF-8"?>
<!DOCTYPE svg PUBLIC "-//W3C//DTD SVG 1.1//EN" "http://www.w3.org/Graphics/SVG/1.1/DTD/svg11.dtd">
<svg xmlns="http://www.w3.org/2000/svg" version="1.1" width="64px" height="64px" style="shape-rendering:geometricPrecision; text-rendering:geometricPrecision; image-rendering:optimizeQuality; fill-rule:evenodd; clip-rule:evenodd" xmlns:xlink="http://www.w3.org/1999/xlink">
<g><path style="opacity:0.984" fill="#4194fb" d="M 25.5,-0.5 C 29.8333,-0.5 34.1667,-0.5 38.5,-0.5C 33.5782,7.09511 28.2449,14.4284 22.5,21.5C 19.6146,21.1936 16.9479,21.5269 14.5,22.5C 13.6773,25.977 13.1773,29.6437 13,33.5C 9.6121,38.0477 6.44543,42.7144 3.5,47.5C 1.97475,44.9209 0.641417,42.2542 -0.5,39.5C -0.5,38.1667 -0.5,36.8333 -0.5,35.5C 9.15868,24.1688 17.8253,12.1688 25.5,-0.5 Z"/></g>
<g><path style="opacity:0.994" fill="#3b9bf8" d="M 38.5,-0.5 C 38.8333,-0.5 39.1667,-0.5 39.5,-0.5C 43.0085,0.78282 46.3418,2.44949 49.5,4.5C 47.9826,4.51056 46.8159,5.17723 46,6.5C 42.5,11.3333 39,16.1667 35.5,21C 31.1794,21.499 26.8461,21.6657 22.5,21.5C 28.2449,14.4284 33.5782,7.09511 38.5,-0.5 Z"/></g>
<g><path style="opacity:0.906" fill="#4890fd" d="M 23.5,-0.5 C 24.1667,-0.5 24.8333,-0.5 25.5,-0.5C 17.8253,12.1688 9.15868,24.1688 -0.5,35.5C -0.5,31.5 -0.5,27.5 -0.5,23.5C 3.16667,11.1667 11.1667,3.16667 23.5,-0.5 Z"/></g>
<g><path style="opacity:0.99" fill="#3ea5f5" d="M 49.5,4.5 C 53.5,6.5 56.5,9.5 58.5,13.5C 55.2029,16.7365 52.3696,20.4031 50,24.5C 49.7216,23.5842 49.2216,22.9175 48.5,22.5C 45.8508,24.14 43.1841,25.8067 40.5,27.5C 39.8333,27.1667 39.1667,26.8333 38.5,26.5C 38.4894,24.9826 37.8228,23.8159 36.5,23C 29.1742,22.5003 21.8409,22.3337 14.5,22.5C 16.9479,21.5269 19.6146,21.1936 22.5,21.5C 26.8461,21.6657 31.1794,21.499 35.5,21C 39,16.1667 42.5,11.3333 46,6.5C 46.8159,5.17723 47.9826,4.51056 49.5,4.5 Z"/></g>
<g><path style="opacity:1" fill="#fefefe" d="M 14.5,22.5 C 21.8409,22.3337 29.1742,22.5003 36.5,23C 37.8228,23.8159 38.4894,24.9826 38.5,26.5C 38.5,31.1667 38.5,35.8333 38.5,40.5C 31.5,40.5 24.5,40.5 17.5,40.5C 16.5416,40.0472 15.7083,39.3805 15,38.5C 14.5006,33.1771 14.334,27.8437 14.5,22.5 Z"/></g>
<g><path style="opacity:1" fill="#fbfdfe" d="M 48.5,22.5 C 48.8293,28.5368 48.4959,34.5368 47.5,40.5C 45.4235,38.7123 43.2568,37.0456 41,35.5C 40.5026,32.854 40.3359,30.1873 40.5,27.5C 43.1841,25.8067 45.8508,24.14 48.5,22.5 Z"/></g>
<g><path style="opacity:0.982" fill="#31b0ef" d="M 58.5,13.5 C 60.5505,16.6582 62.2172,19.9915 63.5,23.5C 63.5,28.8333 63.5,34.1667 63.5,39.5C 59.8333,51.8333 51.8333,59.8333 39.5,63.5C 34.1667,63.5 28.8333,63.5 23.5,63.5C 23.1583,62.6618 22.4916,62.3284 21.5,62.5C 26.1241,55.43 31.1241,48.5966 36.5,42C 30.8431,41.5006 25.1764,41.3339 19.5,41.5C 18.5084,41.6716 17.8417,41.3382 17.5,40.5C 24.5,40.5 31.5,40.5 38.5,40.5C 38.5,35.8333 38.5,31.1667 38.5,26.5C 39.1667,26.8333 39.8333,27.1667 40.5,27.5C 40.3359,30.1873 40.5026,32.854 41,35.5C 43.2568,37.0456 45.4235,38.7123 47.5,40.5C 48.4959,34.5368 48.8293,28.5368 48.5,22.5C 49.2216,22.9175 49.7216,23.5842 50,24.5C 52.3696,20.4031 55.2029,16.7365 58.5,13.5 Z"/></g>
<g><path style="opacity:0.987" fill="#3f9ff8" d="M 14.5,22.5 C 14.334,27.8437 14.5006,33.1771 15,38.5C 15.7083,39.3805 16.5416,40.0472 17.5,40.5C 17.8417,41.3382 18.5084,41.6716 19.5,41.5C 16.1667,46.1667 12.8333,50.8333 9.5,55.5C 7.016,53.1997 5.016,50.5331 3.5,47.5C 6.44543,42.7144 9.6121,38.0477 13,33.5C 13.1773,29.6437 13.6773,25.977 14.5,22.5 Z"/></g>
<g><path style="opacity:0.98" fill="#34a4f4" d="M 19.5,41.5 C 25.1764,41.3339 30.8431,41.5006 36.5,42C 31.1241,48.5966 26.1241,55.43 21.5,62.5C 16.8397,61.1743 12.8397,58.8409 9.5,55.5C 12.8333,50.8333 16.1667,46.1667 19.5,41.5 Z"/></g>
</svg>
